Coordinates
version=1
nRows=37
nColumns=38
inDegrees=no

Units are S.I. units (second, meters, Newtons, ...)
If the header above contains a line with 'inDegrees', this indicates whether rotational values are in degrees (yes) or radians (no).

endheader
time	pelvis_tilt	pelvis_list	pelvis_rotation	pelvis_tx	pelvis_ty	pelvis_tz	hip_flexion_r	hip_adduction_r	hip_rotation_r	knee_angle_r	ankle_angle_r	subtalar_angle_r	mtp_angle_r	hip_flexion_l	hip_adduction_l	hip_rotation_l	knee_angle_l	ankle_angle_l	subtalar_angle_l	mtp_angle_l	lumbar_extension	lumbar_bending	lumbar_rotation	arm_flex_r	arm_add_r	arm_rot_r	elbow_flex_r	pro_sup_r	wrist_flex_r	wrist_dev_r	arm_flex_l	arm_add_l	arm_rot_l	elbow_flex_l	pro_sup_l	wrist_flex_l	wrist_dev_l
0.51	-2.87009	1.32585	-1.78501	0.933611	-0.168176	0.941582	0.356164	-0.218196	-0.084874	1.49162	0.138447	0	0	-0.105962	0.0544358	-0.224579	0.328528	0.0829589	0	0	-0.28907	-0.081156	0.0735528	0.307369	-0.419678	-0.111044	1.30836	1.5708	0	0	0.330803	-0.453305	-0.00851171	1.60229	1.10391	0	0
0.52	-2.88647	1.32352	-1.76676	0.932902	-0.156856	0.943151	0.369902	-0.214372	-0.0884143	1.46193	0.151626	0	0	-0.132524	0.0529503	-0.219906	0.310613	0.0878012	0	0	-0.291787	-0.0760344	0.0706907	0.307005	-0.42042	-0.110037	1.30577	1.5708	0	0	0.331993	-0.450943	-0.00914896	1.60044	1.10473	0	0
0.53	-2.90324	1.32188	-1.74649	0.932116	-0.145615	0.944535	0.381496	-0.210671	-0.0932443	1.4275	0.159612	0	0	-0.157217	0.0503544	-0.214403	0.294551	0.0908349	0	0	-0.294014	-0.0701341	0.0659861	0.307604	-0.421198	-0.108392	1.30322	1.5708	0	0	0.333119	-0.448649	-0.00971444	1.59791	1.10599	0	0
0.54	-2.9202	1.32125	-1.72483	0.931418	-0.134596	0.945566	0.389638	-0.203654	-0.0854097	1.38823	0.169383	0	0	-0.179026	0.0463785	-0.209023	0.281209	0.0934575	0	0	-0.29578	-0.0638909	0.0599921	0.309228	-0.421729	-0.106665	1.30092	1.5708	0	0	0.334822	-0.447534	-0.00989442	1.59546	1.10721	0	0
0.55	-2.93607	1.32006	-1.70265	0.930468	-0.123519	0.946432	0.396131	-0.201866	-0.0941919	1.34374	0.175594	0	0	-0.2009	0.0422924	-0.202895	0.268377	0.0966448	0	0	-0.298085	-0.0572958	0.0522477	0.310688	-0.422601	-0.105316	1.29929	1.5708	0	0	0.336783	-0.44718	-0.00885988	1.5926	1.10985	0	0
0.56	-2.93956	1.31948	-1.68758	0.931118	-0.112918	0.947459	0.401839	-0.178864	-0.0992872	1.30244	0.171356	0	0	-0.219708	0.036629	-0.197785	0.256903	0.101325	0	0	-0.300952	-0.0561926	0.040678	0.311116	-0.42187	-0.105183	1.29765	1.5708	0	0	0.34096	-0.449205	-0.00393906	1.58811	1.11428	0	0
0.57	-2.96001	1.31841	-1.66476	0.928661	-0.101511	0.947461	0.401683	-0.199682	-0.114288	1.24031	0.187456	0	0	-0.243553	0.0350353	-0.187059	0.242863	0.103467	0	0	-0.302173	-0.0456225	0.0347592	0.313959	-0.423357	-0.103188	1.2972	1.5708	0	0	0.341577	-0.449406	0.000786776	1.58508	1.11648	0	0
0.58	-2.96905	1.3189	-1.64885	0.927894	-0.090367	0.947487	0.401627	-0.198486	-0.125094	1.18153	0.193028	0	0	-0.263118	0.031423	-0.179242	0.230857	0.107563	0	0	-0.302959	-0.0405565	0.0257141	0.315696	-0.422945	-0.102943	1.29706	1.5708	0	0	0.342137	-0.44895	-0.0012905	1.58501	1.10845	0	0
0.59	-2.97526	1.32053	-1.63596	0.927231	-0.0791809	0.94713	0.399973	-0.197637	-0.136707	1.11799	0.201661	0	0	-0.281069	0.0281306	-0.171864	0.219582	0.11175	0	0	-0.302531	-0.0364449	0.0169413	0.316694	-0.422142	-0.104173	1.2981	1.5708	0	0	0.342188	-0.448119	-0.0044719	1.58652	1.10377	0	0
0.6	-2.98082	1.32288	-1.62416	0.926807	-0.0679602	0.94647	0.396079	-0.196488	-0.149311	1.04947	0.211108	0	0	-0.297966	0.024763	-0.164835	0.208847	0.117039	0	0	-0.301329	-0.032651	0.00887749	0.317198	-0.421413	-0.106248	1.30011	1.5708	0	0	0.342606	-0.447509	-0.00597803	1.58651	1.10573	0	0
0.61	-2.98969	1.32391	-1.60839	0.926091	-0.0565506	0.945857	0.38924	-0.2007	-0.199646	0.969659	0.206311	0	0	-0.316226	0.0204582	-0.156635	0.198478	0.122789	0	0	-0.301111	-0.0275465	0.000692408	0.317181	-0.421756	-0.108513	1.30278	1.5708	0	0	0.342914	-0.446594	-0.00533936	1.58535	1.1088	0	0
0.62	-2.99379	1.32796	-1.59952	0.925881	-0.045165	0.944576	0.380106	-0.198094	-0.217519	0.887732	0.209551	0	0	-0.32947	0.017037	-0.151195	0.191174	0.130608	0	0	-0.297648	-0.0247277	-0.00533319	0.316691	-0.422025	-0.111148	1.30565	1.5708	0	0	0.343405	-0.445782	-0.00440906	1.58412	1.11096	0	0
0.63	-2.98488	1.33353	-1.59599	0.926612	-0.0342001	0.943238	0.371234	-0.177509	-0.217995	0.80809	0.201995	0	0	-0.338037	0.0107715	-0.150096	0.184866	0.139775	0	0	-0.293872	-0.0269222	-0.0156651	0.313975	-0.422426	-0.114257	1.30812	1.5708	0	0	0.346666	-0.445052	-0.00249814	1.58339	1.11152	0	0
0.64	-2.99577	1.33589	-1.58941	0.925937	-0.0219465	0.941364	0.351057	-0.191683	-0.262431	0.705817	0.209468	0	0	-0.354912	0.0116984	-0.145662	0.178388	0.143588	0	0	-0.290196	-0.0221333	-0.0137492	0.313748	-0.423933	-0.119757	1.31188	1.5708	0	0	0.346386	-0.442458	-0.00139612	1.58124	1.12113	0	0
0.65	-2.98933	1.34176	-1.58373	0.926814	-0.010699	0.939426	0.336918	-0.171433	-0.266064	0.617473	0.194209	0	0	-0.364895	0.00429555	-0.140368	0.169699	0.153601	0	0	-0.285615	-0.0241942	-0.0229727	0.310991	-0.424661	-0.123557	1.31449	1.5708	0	0	0.349752	-0.441069	0.000405213	1.58044	1.1229	0	0
0.66	-2.98646	1.34891	-1.5852	0.927522	0.00138534	0.936743	0.322601	-0.166216	-0.287456	0.523161	0.179581	0	0	-0.375911	0.0020343	-0.135059	0.161866	0.163622	0	0	-0.277604	-0.0253313	-0.0248943	0.309755	-0.425981	-0.125164	1.31736	1.5708	0	0	0.349436	-0.439835	0.000108916	1.58103	1.12309	0	0
0.67	-2.97661	1.35645	-1.59545	0.928578	0.0137226	0.933773	0.309645	-0.160945	-0.306043	0.433672	0.164069	0	0	-0.386177	0.00138686	-0.134378	0.155745	0.174097	0	0	-0.268727	-0.0288441	-0.0251121	0.307799	-0.427245	-0.126492	1.32049	1.5708	0	0	0.3491	-0.439219	0.000846649	1.5813	1.12401	0	0
0.68	-2.95924	1.3647	-1.61482	0.929969	0.0262366	0.930536	0.299111	-0.155638	-0.319905	0.351938	0.150479	0	0	-0.395136	0.00221538	-0.136883	0.151445	0.183058	0	0	-0.258589	-0.0345087	-0.0236823	0.305441	-0.428083	-0.128104	1.32357	1.5708	0	0	0.349048	-0.439067	0.00157452	1.58173	1.12342	0	0
0.69	-2.93895	1.37385	-1.63795	0.931622	0.0389021	0.926993	0.292878	-0.150863	-0.33138	0.283959	0.139442	0	0	-0.402212	0.00309234	-0.141931	0.148898	0.191555	0	0	-0.246775	-0.0408662	-0.0212469	0.302941	-0.428641	-0.129711	1.32586	1.5708	0	0	0.349049	-0.439201	0.00302569	1.58117	1.12362	0	0
0.7	-2.92757	1.38109	-1.6519	0.933401	0.0517722	0.923515	0.284774	-0.143758	-0.338981	0.226908	0.126831	0	0	-0.410531	0.00128343	-0.149942	0.148944	0.200603	0	0	-0.236454	-0.0450648	-0.0185654	0.30062	-0.429986	-0.129752	1.32791	1.5708	0	0	0.349308	-0.439491	0.00571762	1.57963	1.12446	0	0
0.71	-2.91953	1.38774	-1.66145	0.935124	0.0649674	0.919923	0.277767	-0.137026	-0.34425	0.186769	0.116113	0	0	-0.419172	-0.0021153	-0.15654	0.150423	0.211442	0	0	-0.226492	-0.0479572	-0.0184723	0.300121	-0.430739	-0.129211	1.32922	1.5708	0	0	0.344522	-0.43088	-0.0623321	1.59715	0.675666	0	0
0.72	-2.91403	1.39292	-1.66636	0.936433	0.0784341	0.916427	0.272803	-0.133182	-0.3532	0.169143	0.107304	0	0	-0.428717	-0.00647239	-0.160666	0.152854	0.221999	0	0	-0.216112	-0.0497903	-0.0167193	0.295735	-0.434093	-0.130582	1.33085	1.5708	0	0	0.346656	-0.439228	0.0119613	1.57976	1.08249	0	0
0.73	-2.92097	1.39453	-1.65547	0.937352	0.0920125	0.913431	0.265124	-0.129955	-0.364576	0.169313	0.0942745	0	0	-0.440088	-0.0144269	-0.162716	0.159227	0.23262	0	0	-0.210431	-0.0485129	-0.0191344	0.292769	-0.438265	-0.129891	1.33359	1.5708	0	0	0.345807	-0.435567	0.0102414	1.57676	1.13641	0	0
0.74	-2.93348	1.39422	-1.63679	0.937974	0.105764	0.910781	0.257473	-0.128884	-0.379573	0.186181	0.0849336	0	0	-0.451553	-0.0245737	-0.162509	0.169711	0.24149	0	0	-0.206989	-0.0455389	-0.0257413	0.292439	-0.442578	-0.125664	1.33516	1.5708	0	0	0.341127	-0.432498	0.00681876	1.57801	1.13891	0	0
0.75	-2.95633	1.39221	-1.60616	0.9385	0.119732	0.908484	0.247252	-0.126683	-0.399507	0.206919	0.0752237	0	0	-0.462586	-0.0380083	-0.162782	0.184264	0.249393	0	0	-0.205469	-0.0403917	-0.0347219	0.293085	-0.447328	-0.119399	1.33645	1.5708	0	0	0.334416	-0.429913	0.0020525	1.5808	1.14089	0	0
0.76	-2.99108	1.38869	-1.56343	0.939191	0.133888	0.906564	0.234428	-0.121223	-0.423279	0.223081	0.0629899	0	0	-0.473125	-0.054747	-0.164147	0.201888	0.255071	0	0	-0.205709	-0.0329392	-0.0442262	0.294248	-0.451824	-0.112908	1.33718	1.5708	0	0	0.326484	-0.427624	-0.00385203	1.58487	1.13988	0	0
0.77	-3.04473	1.38333	-1.50248	0.940286	0.147922	0.905181	0.219387	-0.109413	-0.446555	0.228791	0.031505	0	0	-0.481602	-0.0767513	-0.169742	0.226027	0.260222	0	0	-0.208809	-0.0213451	-0.0540289	0.297518	-0.456288	-0.10165	1.33679	1.5708	0	0	0.31692	-0.424574	-0.0140974	1.58984	1.14913	0	0
0.78	-3.10075	1.37778	-1.44169	0.941962	0.161637	0.904209	0.20837	-0.0962325	-0.461786	0.236603	-0.00633525	0	0	-0.48608	-0.0998997	-0.176933	0.256589	0.261852	0	0	-0.213224	-0.0092585	-0.0604953	0.300468	-0.45798	-0.0995635	1.33683	1.5708	0	0	0.308829	-0.4217	-0.0208948	1.5929	1.15354	0	0
0.79	3.12732	1.37149	-1.38326	0.943968	0.175149	0.903694	0.202053	-0.0852899	-0.476384	0.253704	-0.0480352	0	0	-0.485959	-0.124361	-0.186417	0.295886	0.260318	0	0	-0.219287	0.00321872	-0.06556	0.303518	-0.458864	-0.0958778	1.33715	1.5708	0	0	0.300491	-0.418861	-0.0282289	1.59604	1.16265	0	0
0.8	3.08447	1.36629	-1.33866	0.946151	0.188676	0.903442	0.204009	-0.0801648	-0.48549	0.289022	-0.0775	0	0	-0.479839	-0.14704	-0.196458	0.343099	0.253912	0	0	-0.224602	0.0131166	-0.0693527	0.305853	-0.458268	-0.0932149	1.33761	1.5708	0	0	0.290601	-0.415791	-0.0411062	1.60459	1.16425	0	0
0.81	3.05987	1.36099	-1.3139	0.948412	0.202401	0.903641	0.209388	-0.0796042	-0.48246	0.336352	-0.082079	0	0	-0.471552	-0.165746	-0.202999	0.393897	0.238493	0	0	-0.230684	0.0193066	-0.0735634	0.308931	-0.455872	-0.0892749	1.33808	1.5708	0	0	0.277492	-0.405353	-0.122202	1.62864	0.664613	0	0
0.82	3.0429	1.35668	-1.29841	0.950809	0.216235	0.904213	0.216626	-0.0797327	-0.468609	0.388291	-0.0682653	0	0	-0.457841	-0.182966	-0.208496	0.451084	0.212775	0	0	-0.233805	0.0230301	-0.071409	0.305558	-0.454366	-0.0918579	1.33936	1.5708	0	0	0.273481	-0.41421	-0.0539455	1.61418	1.15828	0	0
0.83	3.02436	1.35111	-1.28316	0.953584	0.229969	0.905311	0.219529	-0.0755798	-0.449145	0.433293	-0.0478397	0	0	-0.439838	-0.201355	-0.213399	0.515135	0.174317	0	0	-0.238739	0.02738	-0.0689049	0.304189	-0.452172	-0.0919885	1.33992	1.5708	0	0	0.267682	-0.414953	-0.0553635	1.61576	1.1534	0	0
0.84	3.00639	1.34846	-1.27108	0.956787	0.243439	0.906469	0.224166	-0.070406	-0.429488	0.474432	-0.0251562	0	0	-0.411765	-0.218596	-0.216044	0.58739	0.117054	0	0	-0.240866	0.0302044	-0.06371	0.30239	-0.450687	-0.0889396	1.34001	1.5708	0	0	0.263216	-0.416039	-0.0563958	1.61509	1.16018	0	0
0.85	2.98648	1.34425	-1.2565	0.960014	0.256567	0.908016	0.220716	-0.0611464	-0.416332	0.499398	-0.0118662	0	0	-0.378651	-0.237283	-0.213137	0.665329	0.05074	0	0	-0.244978	0.0341229	-0.05815	0.300995	-0.449233	-0.0903475	1.34113	1.5708	0	0	0.261179	-0.417813	-0.0548042	1.61286	1.15928	0	0
0.86	2.96298	1.3422	-1.23731	0.963156	0.269549	0.90928	0.21497	-0.049578	-0.409007	0.51422	-0.00132618	0	0	-0.338227	-0.256066	-0.205159	0.744244	-0.0268144	0	0	-0.246044	0.0384205	-0.0535492	0.2994	-0.449163	-0.0879794	1.34249	1.5708	0	0	0.259486	-0.420541	-0.0516972	1.6098	1.15686	0	0
0.87	2.93773	1.34166	-1.21436	0.966068	0.282429	0.910182	0.206231	-0.0361466	-0.405899	0.520777	0.00994831	0	0	-0.292914	-0.273537	-0.190992	0.821741	-0.10845	0	0	-0.244729	0.0430491	-0.0508454	0.297913	-0.450232	-0.0844435	1.34394	1.5708	0	0	0.25828	-0.423841	-0.0479474	1.60692	1.15347	0	0
